<svg width="30" height="40" viewBox="0 0 30 40" fill="none" xmlns="http://www.w3.org/2000/svg">
<g id="Frame 2">
<g id="Group">
<path id="Vector" d="M3.63959 4.00096C3.27572 4.03622 2.99824 4.35175 3.00001 4.72815V35.2728C3.00001 35.6746 3.31587 36 3.70583 36H26.2942C26.6841 36 27 35.6746 27 35.2728V11.2734C27.0015 11.0771 26.9259 10.8887 26.7905 10.7507L20.4375 4.20539C20.3046 4.07273 20.1263 3.99943 19.9412 4.00095H3.70582C3.68366 3.99968 3.66175 3.99968 3.63959 4.00095V4.00096ZM4.41165 5.45534H19.2352V11.2735C19.2352 11.675 19.5513 12.0007 19.9411 12.0007H25.5883V34.5456H4.41172L4.41165 5.45534ZM20.647 6.47804L24.5954 10.546H20.647V6.47804ZM6.11019 10.1826C5.92308 10.1914 5.74681 10.2769 5.62076 10.4195C5.49446 10.5623 5.42848 10.751 5.43734 10.9437C5.44596 11.1368 5.52892 11.3181 5.66753 11.4482C5.80613 11.5781 5.98906 11.6461 6.17641 11.637H13.9411C14.1302 11.6397 14.3122 11.5644 14.4468 11.4277C14.5815 11.291 14.6571 11.1045 14.6571 10.9097C14.6571 10.7149 14.5815 10.5285 14.4468 10.3918C14.3122 10.2551 14.1302 10.1798 13.9411 10.1825H6.17641C6.15425 10.1815 6.13234 10.1815 6.11018 10.1825L6.11019 10.1826ZM6.11019 13.0916C5.92308 13.1005 5.74681 13.1857 5.62076 13.3285C5.49446 13.4713 5.42848 13.6601 5.43734 13.8528C5.44596 14.0459 5.52892 14.2272 5.66753 14.3571C5.80613 14.4872 5.98906 14.5552 6.17641 14.546H11.8236C12.0124 14.5488 12.1946 14.4735 12.329 14.3368C12.4637 14.2001 12.5395 14.0134 12.5395 13.8188C12.5395 13.624 12.4637 13.4376 12.329 13.3009C12.1946 13.1642 12.0124 13.0888 11.8236 13.0916H6.17641C6.15425 13.0904 6.13234 13.0904 6.11018 13.0916L6.11019 13.0916ZM6.52945 16.3641C6.13948 16.3641 5.82363 16.6898 5.82338 17.0913V25.8184C5.82363 26.2199 6.13949 26.5456 6.52945 26.5456H23.4707C23.8607 26.5456 24.1765 26.2199 24.1768 25.8184V17.0913C24.1765 16.6898 23.8607 16.3641 23.4707 16.3641H6.52945ZM7.23527 17.8185H17.4706V19.2732H7.23527V17.8185ZM18.8824 17.8185H22.7646V19.2732H18.8824V17.8185ZM7.23527 20.7276H17.4706V22.1822H7.23527V20.7276ZM18.8824 20.7276H22.7646V22.1822H18.8824V20.7276ZM7.23527 23.6367H17.4706V25.0911H7.23527V23.6367ZM18.8824 23.6367H22.7646V25.0911H18.8824V23.6367ZM15.2867 28.3639C15.0994 28.3728 14.9233 28.4583 14.797 28.6008C14.671 28.7436 14.605 28.9323 14.6136 29.1251C14.6225 29.3181 14.7052 29.4995 14.8438 29.6296C14.9824 29.7595 15.1656 29.8274 15.3529 29.8183H23.1177C23.3065 29.8211 23.4887 29.7458 23.6234 29.609C23.7578 29.4723 23.8336 29.2859 23.8336 29.0911C23.8336 28.8963 23.7578 28.7099 23.6234 28.5731C23.4887 28.4364 23.3065 28.3611 23.1177 28.3639H15.3529C15.3308 28.3629 15.3086 28.3629 15.2867 28.3639L15.2867 28.3639ZM17.4042 31.273C17.2171 31.2819 17.0411 31.3671 16.9148 31.5099C16.7885 31.6527 16.7225 31.8414 16.7314 32.0342C16.7403 32.2272 16.823 32.4085 16.9616 32.5384C17.1002 32.6685 17.2834 32.7365 17.4705 32.7274H23.1177C23.3065 32.7302 23.4887 32.6548 23.6234 32.5181C23.7578 32.3814 23.8336 32.1947 23.8336 32.0002C23.8336 31.8054 23.7578 31.6189 23.6234 31.4822C23.4887 31.3455 23.3065 31.2702 23.1177 31.273H17.4705C17.4486 31.2717 17.4264 31.2717 17.4042 31.273L17.4042 31.273Z" fill="white"/>
</g>
</g>
</svg>
