<svg width="30" height="30" viewBox="0 0 30 30" fill="none" xmlns="http://www.w3.org/2000/svg">
<g id="Frame 5">
<g id="Group">
<g id="Group_2">
<path id="Vector" d="M6.93959 4C5.08352 4 3.56657 5.65569 3.56657 7.67928C3.56657 9.20559 4.42412 10.5201 5.64555 11.0755C2.45974 11.6871 0 14.4961 0 17.9476C0.000227445 18.3476 0.292057 18.6721 0.652348 18.6721H5.56391C5.7386 18.6749 5.90669 18.5998 6.03111 18.4636C6.15553 18.3274 6.22536 18.1417 6.22536 17.9476C6.22536 17.7535 6.15553 17.5678 6.03111 17.4316C5.90669 17.2954 5.7386 17.2203 5.56391 17.2231H1.37568C1.73643 14.5231 4.04196 12.389 6.93959 12.389C8.36261 12.389 9.65385 12.9002 10.6388 13.7475C10.6954 13.8051 10.7611 13.8511 10.8323 13.8834C11.2115 14.6289 11.7494 15.2634 12.4016 15.7286C8.79154 16.8501 6.12439 20.2263 6.12439 24.2755C6.12439 24.6758 6.41644 25 6.7765 25H23.2235C23.5836 25 23.8756 24.6758 23.8756 24.2755C23.8756 20.226 21.2084 16.8497 17.5984 15.7286C18.2506 15.2634 18.7885 14.6289 19.1677 13.8834C19.2389 13.8511 19.3046 13.8051 19.3612 13.7475C20.3461 12.9002 21.6374 12.389 23.0604 12.389C25.958 12.389 28.2635 14.523 28.6243 17.2231H24.4361C24.2614 17.2203 24.0933 17.2954 23.9689 17.4316C23.8445 17.5678 23.7746 17.7535 23.7746 17.9476C23.7746 18.1417 23.8445 18.3274 23.9689 18.4636C24.0933 18.5998 24.2614 18.6749 24.4361 18.6721H29.3477C29.7079 18.6721 29.9998 18.3476 30 17.9476C30 14.4962 27.5403 11.6873 24.3544 11.0755C25.5759 10.5201 26.4334 9.20559 26.4334 7.67928C26.4334 5.65569 24.9165 4 23.0604 4C21.2041 4 19.6874 5.65569 19.6874 7.67928C19.6874 9.19725 20.5353 10.5034 21.7459 11.0644C21.0344 11.2009 20.3666 11.4493 19.7486 11.7889C19.7588 11.6507 19.7688 11.5109 19.7688 11.3699C19.7688 8.5056 17.6259 6.16231 14.9999 6.16231C12.3739 6.16231 10.231 8.5056 10.231 11.3699C10.231 11.5109 10.241 11.6506 10.2513 11.7889C9.63328 11.4493 8.96545 11.2009 8.25394 11.0644C9.46447 10.5034 10.3125 9.19725 10.3125 7.67928C10.3125 5.65569 8.79576 4 6.93946 4H6.93959ZM6.93959 5.42649C8.08416 5.42649 8.99813 6.43146 8.99813 7.67928C8.99813 8.92736 8.08421 9.92094 6.93959 9.92094C5.79497 9.92094 4.88128 8.92736 4.88128 7.67928C4.88128 6.43146 5.79497 5.42649 6.93959 5.42649ZM23.0605 5.42649C24.2051 5.42649 25.1188 6.43146 25.1188 7.67928C25.1188 8.92736 24.2051 9.92094 23.0605 9.92094C21.9159 9.92094 21.002 8.92736 21.002 7.67928C21.002 6.43146 21.9159 5.42649 23.0605 5.42649ZM14.9998 7.60023C16.9145 7.60023 18.4542 9.28167 18.4542 11.3699C18.4542 13.4585 16.9145 15.1399 14.9998 15.1399C13.085 15.1399 11.5453 13.4585 11.5453 11.3699C11.5453 9.28167 13.085 7.60023 14.9998 7.60023ZM14.9998 16.7701C18.9694 16.7701 22.13 19.7828 22.4997 23.551H7.49976C7.86961 19.7825 11.0302 16.7701 14.9998 16.7701Z" fill="white" fill-opacity="0.5"/>
</g>
</g>
</g>
</svg>
