<svg width="30" height="46" viewBox="0 0 30 46" fill="none" xmlns="http://www.w3.org/2000/svg">
<g id="Frame 1">
<g id="Group">
<path id="Vector" d="M24.1404 11.421H19.5457L19.5453 4.51579H21.6697C21.9168 4.51579 22.1143 4.3475 22.1143 4.13692L22.1146 3.37888C22.1146 3.16829 21.9171 3 21.67 3H8.32996C8.08285 3 7.88537 3.16829 7.88537 3.37888V4.13662C7.88537 4.3472 8.08285 4.51549 8.32996 4.51549H10.4543V11.4207H5.85957C3.68555 11.4207 1.95654 12.8945 1.95654 14.7469V34.5362C1.95654 36.2626 3.48809 37.652 5.41499 37.8623C5.01969 38.3255 4.82221 38.915 4.77259 39.5464C4.67367 41.3991 6.45236 42.9991 8.57707 42.9991C10.7511 43.0411 12.5298 41.5253 12.5298 39.673C12.5298 38.9993 12.2827 38.3678 11.8874 37.8626H18.1126C17.6184 38.4941 17.3717 39.3365 17.5199 40.1785C17.767 41.526 19.0022 42.6626 20.583 42.9152C23.0534 43.3363 25.2275 41.6943 25.2275 39.673C25.2275 38.9993 24.9804 38.3678 24.5851 37.8626C26.512 37.6943 28.0435 36.2626 28.0435 34.5365V14.7472C28.0435 12.8948 26.3141 11.421 24.1405 11.421H24.1404ZM12.2332 4.51579H17.7667V11.421H12.2332V4.51579ZM10.7508 39.6735C10.7508 40.6841 9.81201 41.4838 8.62649 41.4838C7.44062 41.4838 6.50214 40.6838 6.50214 39.6735C6.50214 38.6629 7.44097 37.8631 8.62649 37.8631C9.8121 37.9048 10.7508 38.7048 10.7508 39.6735ZM21.3735 41.4838C20.1876 41.4838 19.2491 40.6838 19.2491 39.6735C19.2491 38.6629 20.188 37.8631 21.3735 37.8631C22.5594 37.8631 23.4979 38.6632 23.4979 39.6735C23.4982 40.6838 22.5101 41.4838 21.3735 41.4838ZM26.3143 34.5366C26.3143 35.5472 25.3754 36.347 24.1899 36.347H5.90907C4.7232 36.347 3.78472 35.5469 3.78472 34.5366V14.7473C3.78472 13.7367 4.72355 12.9369 5.90907 12.9369H24.1899C25.3758 12.9369 26.3143 13.737 26.3143 14.7473V34.5366Z" fill="white" fill-opacity="0.5"/>
<path id="Vector_2" d="M19.5949 28.6421C17.7173 28.6421 16.2354 29.7367 16.2354 31.0841C16.2354 32.4316 17.7669 33.5262 19.5949 33.5262C21.4229 33.5262 22.9544 32.4316 22.9544 31.0841C22.9548 29.7369 21.4725 28.6421 19.5949 28.6421ZM19.5949 32.0525C18.7057 32.0525 17.9644 31.6313 17.9644 31.0841C17.9644 30.579 18.7054 30.1158 19.5949 30.1158C20.4841 30.1158 21.2254 30.537 21.2254 31.0841C21.2254 31.6316 20.4844 32.0525 19.5949 32.0525Z" fill="white" fill-opacity="0.5"/>
<path id="Vector_3" d="M12.9247 25.7368H8.8239C7.93474 25.7368 7.24268 26.3262 7.24268 27.0843V28.7683C7.24268 29.5261 7.93437 30.1159 8.8239 30.1159H12.9247C13.8139 30.1159 14.506 29.5264 14.506 28.7683V27.0843C14.5056 26.3685 13.7646 25.7368 12.9247 25.7368ZM12.7269 28.6421H8.92243V27.2526H12.7269V28.6421Z" fill="white" fill-opacity="0.5"/>
<path id="Vector_4" d="M17.5199 25.8211L21.9172 24.6002C22.7571 24.3476 23.2017 23.5896 22.9549 22.8738L22.2632 21.316C22.115 20.9791 21.8679 20.6845 21.4726 20.5159C21.0773 20.3476 20.682 20.3053 20.2374 20.4316L15.8402 21.6525C15.4448 21.7788 15.0992 21.9894 14.9013 22.3263C14.7038 22.6631 14.6542 23 14.8024 23.3789L15.3952 24.9789C15.5927 25.5684 16.2351 25.9053 16.9267 25.9053C17.1742 25.9053 17.3224 25.863 17.5199 25.821L17.5199 25.8211ZM20.682 21.9054L21.1762 23.2106L17.1246 24.3475L16.6304 23.0424L20.682 21.9054Z" fill="white" fill-opacity="0.5"/>
<path id="Vector_5" d="M8.57706 21.0632C9.26875 21.4421 10.1086 21.6527 10.9485 21.6527C11.0967 21.6527 11.2946 21.6527 11.4428 21.6107C12.4805 21.5264 13.4686 21.1475 14.1603 20.5581C14.9012 19.9266 15.2472 19.1266 15.1483 18.3265C15.0494 17.5264 14.5059 16.8107 13.6168 16.3055C12.7769 15.8424 11.7888 15.6741 10.7018 15.7581C8.47856 15.9687 6.79879 17.4421 6.99625 19.0423C7.14444 19.8843 7.68793 20.5581 8.57711 21.0632H8.57706ZM10.9485 17.2739H11.2946C11.8381 17.2739 12.3323 17.4002 12.7272 17.6108C13.1718 17.8634 13.4189 18.1583 13.4682 18.4952C13.5175 18.8321 13.32 19.2109 12.974 19.5058C12.5787 19.8426 11.9859 20.0532 11.3435 20.1372C10.7011 20.1792 10.059 20.0952 9.56484 19.8003C9.12025 19.5478 8.87315 19.2529 8.82386 18.916C8.67601 18.1159 9.66409 17.3582 10.9486 17.2739L10.9485 17.2739Z" fill="white" fill-opacity="0.5"/>
</g>
</g>
</svg>
