<svg width="30" height="30" viewBox="0 0 30 30" fill="none" xmlns="http://www.w3.org/2000/svg">
<g id="Frame 4">
<g id="Group">
<path id="Vector" d="M24.3468 15.4098C24.3468 17.513 23.2999 19.4174 21.6085 20.7953C20.0773 22.0427 18.0177 22.8592 15.7269 23.0038V26.481L18.8015 28.9858C19.0854 29.2179 19.0854 29.5936 18.8015 29.8257C18.6597 29.9413 18.4732 30 18.2854 30H11.7102C11.3073 30 10.9812 29.7343 10.9812 29.4061C10.9812 29.2392 11.0658 29.0881 11.202 28.9802L14.2686 26.4819V23.0048C11.9778 22.8613 9.91793 22.0445 8.38698 20.7962C6.69452 19.4183 5.64866 17.514 5.64866 15.4108C5.64866 14.2046 6.03419 13.03 6.48515 11.6568C7.08831 9.81944 7.81361 7.60727 7.81361 4.52708C7.81361 4.19891 8.1398 3.93318 8.54261 3.93318H12.8087V2.56094C12.8087 2.18422 12.6187 1.84131 12.3133 1.59139C12.0078 1.34255 11.5867 1.18779 11.1242 1.18779H5.72901C5.32618 1.18779 5 0.922053 5 0.593897C5 0.26573 5.3262 0 5.72901 0H11.1242C11.9892 0 12.7754 0.288065 13.3453 0.752373C13.9152 1.21666 14.2688 1.85693 14.2688 2.56181V3.93405H15.7312V2.56181C15.7312 1.85716 16.0847 1.21665 16.6547 0.752373C17.2246 0.288087 18.0105 0 18.8758 0H24.271C24.6738 0 25 0.265742 25 0.593897C25 0.922064 24.6738 1.18779 24.271 1.18779H18.8758C18.4133 1.18779 17.9924 1.34256 17.6867 1.59139C17.3813 1.84022 17.1913 2.18334 17.1913 2.56094V3.93318H21.4574C21.8602 3.93318 22.1864 4.19892 22.1864 4.52708C22.1864 7.60715 22.913 9.81844 23.5149 11.6568C23.9658 13.03 24.3513 14.2046 24.3513 15.4108L24.3468 15.4098ZM14.9977 27.5658L13.47 28.8104H16.5252L14.9974 27.5658H14.9977ZM17.188 5.11943V11.5351C17.7062 11.633 18.2487 11.7056 18.8038 11.7531C19.868 11.8454 20.9722 11.8444 22.0354 11.7512C21.4633 10.0052 20.8144 7.92631 20.7319 5.11858H17.1869L17.188 5.11943ZM15.7289 11.1716V5.11943H14.2666V10.6922C14.6257 10.7902 14.9714 10.9 15.3 11.0232C15.4396 11.0754 15.5825 11.1248 15.7291 11.1714L15.7289 11.1716ZM11.416 11.3907C10.322 11.2826 9.18347 11.2713 8.08728 11.36C8.02103 11.565 7.95557 11.7655 7.89039 11.9612C7.46815 13.2496 7.10656 14.3525 7.10656 15.4087C7.10656 17.1837 7.9899 18.7907 9.41679 19.9542C10.8448 21.1176 12.8176 21.8363 14.9964 21.8363C17.1752 21.8363 19.1478 21.1167 20.576 19.9542C22.004 18.7909 22.8863 17.1837 22.8863 15.4087C22.8863 14.621 22.6848 13.8062 22.4068 12.9093C21.1755 13.0314 19.8893 13.0389 18.6524 12.9316C17.2209 12.8085 15.8478 12.5309 14.6931 12.0991C13.6815 11.7206 12.5108 11.4987 11.4136 11.3897L11.416 11.3907ZM12.8075 10.3746V5.11967H9.26249C9.20422 7.11638 8.8586 8.7442 8.45924 10.1471C9.50272 10.0892 10.5659 10.1107 11.5865 10.2123C11.9997 10.2533 12.4081 10.3075 12.8075 10.3744V10.3746Z" fill="white" fill-opacity="0.5"/>
</g>
</g>
</svg>
